<?xml version="1.0" encoding="UTF-8" standalone="no"?>
<!-- Created with Inkscape (http://www.inkscape.org/) -->

<svg
   xmlns:dc="http://purl.org/dc/elements/1.1/"
   xmlns:cc="http://creativecommons.org/ns#"
   xmlns:rdf="http://www.w3.org/1999/02/22-rdf-syntax-ns#"
   xmlns:svg="http://www.w3.org/2000/svg"
   xmlns="http://www.w3.org/2000/svg"
   xmlns:sodipodi="http://sodipodi.sourceforge.net/DTD/sodipodi-0.dtd"
   xmlns:inkscape="http://www.inkscape.org/namespaces/inkscape"
   width="85.371162mm"
   height="85.371162mm"
   viewBox="0 0 302.49624 302.49624"
   id="svg2"
   version="1.1"
   inkscape:version="0.91 r13725"
   inkscape:export-filename="/tmp/icon.png"
   inkscape:export-xdpi="53.554379"
   inkscape:export-ydpi="53.554379"
   sodipodi:docname="icon.svg">
  <defs
     id="defs4" />
  <sodipodi:namedview
     id="base"
     pagecolor="#ffffff"
     bordercolor="#666666"
     borderopacity="1.0"
     inkscape:pageopacity="0.0"
     inkscape:pageshadow="2"
     inkscape:zoom="0.98547486"
     inkscape:cx="-27.700279"
     inkscape:cy="182.58598"
     inkscape:document-units="px"
     inkscape:current-layer="layer1"
     showgrid="false"
     fit-margin-top="0"
     fit-margin-left="0"
     fit-margin-right="0"
     fit-margin-bottom="0"
     inkscape:window-width="1920"
     inkscape:window-height="1171"
     inkscape:window-x="1920"
     inkscape:window-y="0"
     inkscape:window-maximized="1" />
  <metadata
     id="metadata7">
    <rdf:RDF>
      <cc:Work
         rdf:about="">
        <dc:format>image/svg+xml</dc:format>
        <dc:type
           rdf:resource="http://purl.org/dc/dcmitype/StillImage" />
        <dc:title></dc:title>
      </cc:Work>
    </rdf:RDF>
  </metadata>
  <g
     inkscape:label="Calque 1"
     inkscape:groupmode="layer"
     id="layer1"
     transform="translate(-99.063658,-91.023367)">
    <rect
       style="fill:#00c8f7;fill-opacity:1;stroke:#00c8f7;stroke-width:6.33960342;stroke-miterlimit:4;stroke-dasharray:none;stroke-opacity:1"
       id="rect4169"
       width="296.15665"
       height="296.15665"
       x="102.23346"
       y="94.193169"
       ry="23.42576" />
    <path
       style="fill:#ffffff;fill-opacity:1;stroke:#00c8f7;stroke-width:8;stroke-linecap:round;stroke-linejoin:round;stroke-miterlimit:4;stroke-dasharray:none;stroke-opacity:1"
       d="m 232.34321,276.55307 -42.61305,-23.46392 c -18.54886,-10.2135 -41.70411,-3.50309 -51.91763,15.04576 l -12.56995,22.82844 c -10.21351,18.54885 -3.50311,41.70411 15.04575,51.91762 l -7.89519,13.96691 29.20172,-2.23495 21.30653,11.73195 c 18.54886,10.21352 41.70412,3.50311 51.91764,-15.04575 l 12.56995,-22.82842 c 10.21351,-18.54886 3.50309,-41.70413 -15.04577,-51.91764 z"
       id="rect3336-7"
       inkscape:connector-curvature="0"
       sodipodi:nodetypes="sssssccssss" />
    <g
       style="fill:#ffffff;fill-opacity:1;stroke:#00c8f7;stroke-width:15.20913315;stroke-linecap:round;stroke-linejoin:round;stroke-miterlimit:4;stroke-dasharray:none;stroke-opacity:1"
       id="g4200"
       transform="matrix(-0.46154115,0.25230039,0.25230039,0.46154115,297.39513,75.27011)">
      <path
         id="path4192"
         d="M 384,0 128,222.4 266.656,296.544 128,512 384,289.6 277.344,215.456 384,0 Z"
         inkscape:connector-curvature="0"
         style="fill:#ffffff;fill-opacity:1;stroke:#00c8f7;stroke-width:15.20913315;stroke-linecap:round;stroke-linejoin:round;stroke-miterlimit:4;stroke-dasharray:none;stroke-opacity:1" />
    </g>
    <path
       style="fill:#ffffff;fill-opacity:1;stroke:#00c8f7;stroke-width:8;stroke-linecap:round;stroke-linejoin:round;stroke-miterlimit:4;stroke-dasharray:none;stroke-opacity:1"
       d="m 241.63794,140.70086 54.92261,-34.65381 c 23.90703,-15.084322 55.29718,-7.98156 70.38149,15.92548 l 18.56455,29.42283 c 15.08432,23.90703 7.98155,55.29717 -15.92549,70.38149 l 11.63088,17.98525 -39.09218,-0.65834 -27.4613,17.32691 c -23.90705,15.08433 -55.2972,7.98156 -70.38151,-15.92547 l -18.56455,-29.42283 c -15.08432,-23.90704 -7.98154,-55.29718 15.9255,-70.38151 z"
       id="rect3336"
       inkscape:connector-curvature="0"
       sodipodi:nodetypes="sssssccssss" />
  </g>
</svg>
